<svg width="34" height="34" viewBox="0 0 34 34" fill="none" xmlns="http://www.w3.org/2000/svg">
<circle cx="17" cy="17" r="17" fill="white"/>
<path d="M16.4048 17.9562V17.7087C16.4048 14.8475 16.4062 11.9863 16.403 9.12513C16.4026 8.80491 16.4684 8.51812 16.6989 8.29327C16.9966 8.00292 17.346 7.92311 17.724 8.07649C18.1011 8.22951 18.3092 8.53129 18.3405 8.95571C18.3471 9.04482 18.3444 9.13476 18.3444 9.22432C18.3446 12.0433 18.3446 14.8624 18.3446 17.6814V17.9467C18.425 17.8732 18.47 17.8366 18.5101 17.7949C19.1658 17.1136 19.8207 16.4314 20.4764 15.7501C20.7673 15.4478 21.112 15.3411 21.5051 15.4804C22.1921 15.7238 22.388 16.6043 21.8733 17.1521C21.2823 17.7811 20.6795 18.3981 20.0819 19.0203C19.4342 19.6947 18.7867 20.3693 18.1388 21.0436C17.6509 21.5514 17.0954 21.5524 16.608 21.0455C15.3655 19.7534 14.1221 18.4622 12.882 17.1676C12.3955 16.6598 12.5026 15.8597 13.094 15.5341C13.4842 15.3193 13.9252 15.3962 14.2623 15.7452C14.9262 16.4327 15.5876 17.123 16.2504 17.8117C16.2874 17.8502 16.3282 17.8848 16.4048 17.9562Z" fill="black" stroke="black"/>
<path d="M17.368 25.2565C16.113 25.2564 14.858 25.2582 13.603 25.2555C13.1299 25.2545 12.7611 24.9252 12.6278 24.3982C12.4192 23.5732 12.8514 22.7473 13.5141 22.7051C13.5444 22.7032 13.5748 22.7038 13.6052 22.7038C16.1152 22.7037 18.6252 22.7033 21.1352 22.7041C21.5982 22.7042 21.9698 23.0274 22.1066 23.5428C22.3265 24.3714 21.8937 25.2214 21.224 25.2501C20.764 25.2697 20.3031 25.2562 19.8426 25.2565C19.0177 25.257 18.1929 25.2566 17.368 25.2565Z" fill="black" stroke="black"/>
</svg>
