<svg width="13" height="20" viewBox="0 0 13 20" fill="none" xmlns="http://www.w3.org/2000/svg">
<path d="M4.35665 9.96491C4.44477 9.89837 4.53919 9.83753 4.62008 9.76446C7.26811 7.37271 9.91423 4.97923 12.5626 2.5878C12.8543 2.32445 13.0125 2.02 12.9736 1.64251C12.9482 1.39596 12.8392 1.18166 12.6503 1.00482C12.4003 0.770754 12.1534 0.532555 11.8863 0.315178C11.3385 -0.13049 10.6625 -0.0998701 10.1266 0.383856C8.6762 1.69289 7.22723 3.00319 5.77781 4.31309C3.99233 5.92669 2.20809 7.5414 0.42049 9.15307C0.112056 9.43115 -0.0420923 9.7529 0.00996304 10.149C0.0475922 10.4353 0.213796 10.656 0.433191 10.854C1.82617 12.111 3.21758 13.3695 4.60953 14.6275C6.44628 16.2875 8.28347 17.9471 10.1193 19.608C10.3612 19.8268 10.6367 19.979 10.9866 19.9977C11.3028 20.0147 11.5925 19.9368 11.8232 19.7436C12.1325 19.4846 12.4401 19.2205 12.716 18.933C13.0992 18.5336 13.096 17.9397 12.6981 17.5506C12.2163 17.0794 11.7037 16.6338 11.2015 16.1797C8.97197 14.1637 6.74155 12.1485 4.51013 10.1342C4.4665 10.0948 4.40666 10.0701 4.35438 10.0385C4.35514 10.014 4.3559 9.98944 4.35665 9.96491Z" fill="white" fill-opacity="0.4"/>
</svg>
