<svg width="12" height="8" viewBox="0 0 12 8" fill="none" xmlns="http://www.w3.org/2000/svg">
<path d="M6.02105 5.31898C6.06098 5.26476 6.09748 5.20665 6.14132 5.15687C7.57638 3.52732 9.01246 1.89893 10.4473 0.269155C10.6053 0.0896763 10.788 -0.00772024 11.0145 0.0162222C11.1624 0.0318591 11.291 0.0989599 11.3971 0.215191C11.5375 0.369036 11.6805 0.520955 11.8109 0.685378C12.0783 1.02248 12.0599 1.43843 11.7697 1.76825C10.9843 2.6608 10.1981 3.55247 9.41214 4.44443C8.44399 5.54318 7.47516 6.64118 6.50816 7.74124C6.34131 7.93104 6.14826 8.0259 5.9106 7.99387C5.73881 7.97071 5.60642 7.86843 5.48763 7.73342C4.73338 6.8762 3.97828 6.01995 3.22347 5.16336C2.22747 4.03306 1.23171 2.90248 0.235207 1.77275C0.103905 1.62389 0.0125808 1.45434 0.0013513 1.23904C-0.00880151 1.0444 0.0379142 0.866143 0.153813 0.724202C0.309244 0.53385 0.467717 0.344525 0.640194 0.174793C0.879845 -0.0610429 1.23617 -0.0590629 1.46965 0.185783C1.75239 0.48228 2.01974 0.797741 2.29219 1.10677C3.50179 2.47879 4.7109 3.85135 5.91947 5.22453C5.94311 5.25139 5.95795 5.28821 5.9769 5.32038C5.99162 5.31991 6.00633 5.31945 6.02105 5.31898Z" fill="white"/>
</svg>
