<svg width="27" height="45" viewBox="0 0 27 45" fill="none" xmlns="http://www.w3.org/2000/svg">
<path d="M10.8498 26.1647V25.5141C10.8499 17.995 10.8536 10.4759 10.8449 2.95682C10.8439 2.11528 11.0236 1.36162 11.6539 0.770702C12.4678 0.00768521 13.4234 -0.202072 14.4569 0.201011C15.4879 0.603145 16.0568 1.39622 16.1426 2.51157C16.1606 2.74577 16.1532 2.98211 16.1532 3.21747C16.1537 10.6258 16.1536 18.0341 16.1536 25.4424V26.1396C16.3736 25.9465 16.4964 25.8502 16.606 25.7407C18.399 23.9504 20.1895 22.1575 21.9824 20.367C22.7779 19.5726 23.7204 19.2922 24.7953 19.6582C26.6737 20.2979 27.2091 22.6119 25.8018 24.0514C24.1859 25.7044 22.5378 27.3258 20.9038 28.9611C19.1328 30.7334 17.3624 32.5063 15.591 34.2783C14.2569 35.6128 12.738 35.6155 11.4054 34.2833C8.00817 30.8876 4.60847 27.4943 1.21758 24.0922C-0.11261 22.7576 0.18037 20.6552 1.79743 19.7994C2.86432 19.2348 4.07001 19.4371 4.99166 20.3543C6.8071 22.161 8.61532 23.975 10.4277 25.7849C10.5289 25.886 10.6404 25.9769 10.8498 26.1647Z" fill="white"/>
<path d="M13.4983 44.0211C10.0643 44.0209 6.63039 44.0246 3.19647 44.019C1.90202 44.0169 0.892802 43.3295 0.528188 42.2296C-0.0426592 40.5075 1.14001 38.7836 2.95322 38.6955C3.03614 38.6915 3.11934 38.6927 3.20241 38.6927C10.0703 38.6926 16.9381 38.6918 23.806 38.6934C25.0728 38.6937 26.0896 39.3682 26.4638 40.444C27.0656 42.1736 25.8813 43.9479 24.049 44.0076C22.7902 44.0487 21.5292 44.0205 20.2692 44.021C18.0122 44.022 15.7552 44.0213 13.4983 44.0211Z" fill="white"/>
</svg>
