<svg width="9" height="6" viewBox="0 0 9 6" fill="none" xmlns="http://www.w3.org/2000/svg">
<path d="M4.51579 2.01076C4.54573 2.05143 4.57311 2.09501 4.60599 2.13235C5.68228 3.35451 6.75935 4.5758 7.83549 5.79813C7.954 5.93274 8.091 6.00579 8.26087 5.98783C8.37182 5.97611 8.46825 5.92578 8.54783 5.83861C8.65316 5.72322 8.76035 5.60928 8.85817 5.48597C9.05872 5.23314 9.04494 4.92117 8.82726 4.67381C8.2382 4.0044 7.64856 3.33565 7.05911 2.66668C6.33299 1.84262 5.60637 1.01912 4.88112 0.194073C4.75598 0.0517182 4.6112 -0.0194269 4.43295 0.00459904C4.3041 0.0219659 4.20482 0.0986752 4.11572 0.199935C3.55004 0.84285 2.98371 1.48504 2.41761 2.12748C1.6706 2.97521 0.923784 3.82314 0.176404 4.67044C0.0779276 4.78208 0.00943567 4.90925 0.00101281 5.07072C-0.00660132 5.2167 0.0284348 5.35039 0.115359 5.45685C0.231933 5.59961 0.350788 5.74161 0.480145 5.8689C0.659883 6.04578 0.92713 6.0443 1.10224 5.86066C1.31429 5.63829 1.51481 5.40169 1.71914 5.16992C2.62634 4.14091 3.53318 3.11149 4.4396 2.0816C4.45733 2.06146 4.46846 2.03384 4.48267 2.00972C4.49371 2.01006 4.50475 2.01041 4.51579 2.01076Z" fill="#E4D804"/>
</svg>
