<svg width="34" height="34" viewBox="0 0 34 34" fill="none" xmlns="http://www.w3.org/2000/svg">
<path d="M34 16.9985C34.0012 26.3624 26.3733 33.9941 17.0072 34C7.63662 34.0059 -0.00785213 26.3603 6.05298e-06 16.9904C0.00786202 7.62369 7.64079 -0.00317027 17.0039 9.88601e-07C26.3692 0.00317313 33.9988 7.63386 34 16.9985ZM30.9052 16.9968C30.8993 9.34467 24.6657 3.10907 17.0077 3.09476C9.36533 3.08048 3.0888 9.355 3.09476 17.0032C3.10073 24.6553 9.33433 30.8909 16.9923 30.9052C24.6346 30.9195 30.9112 24.6449 30.9052 16.9968Z" fill="#E4D804"/>
<path d="M18.4735 20.7013C18.4734 22.2011 18.4705 23.7009 18.4748 25.2007C18.4767 25.8712 18.2213 26.381 17.6445 26.6936C16.7531 27.1768 15.6179 26.5176 15.5365 25.4735C15.5291 25.3784 15.5238 25.2827 15.5238 25.1873C15.5232 22.195 15.5254 19.2028 15.5217 16.2106C15.5209 15.544 15.754 15.0238 16.3341 14.7072C17.2516 14.2066 18.4054 14.8611 18.4549 15.938C18.4948 16.8036 18.471 17.6724 18.4732 18.5398C18.4751 19.2603 18.4736 19.9808 18.4735 20.7013Z" fill="#E4D804"/>
<path d="M17.0707 7.14825C18.1801 7.21728 19.0257 8.18309 18.9683 9.31663C18.9076 10.5169 18.0077 11.377 16.9501 11.3316C15.81 11.2826 14.9652 10.2903 15.0328 9.14268C15.1013 7.98142 16.0195 7.08284 17.0707 7.14825Z" fill="#E4D804"/>
</svg>
