<svg width="11" height="12" viewBox="0 0 11 12" fill="none" xmlns="http://www.w3.org/2000/svg">
<path d="M5.63848 0.448608C8.58611 0.448694 10.9725 2.83304 10.973 5.77851C10.9734 8.7331 8.58088 11.113 5.59733 11.0936C2.67901 11.0746 0.328822 8.7036 0.327881 5.76807C0.326943 2.83691 2.71405 0.448523 5.63848 0.448608ZM6.15657 3.83023C6.15657 3.29871 6.15812 2.76719 6.15596 2.23568C6.15478 1.94458 5.93361 1.71916 5.65455 1.71736C5.36859 1.71552 5.14459 1.93992 5.14425 2.23653C5.14287 3.40868 5.14381 4.58084 5.1435 5.75299C5.14345 5.93511 5.21717 6.07877 5.36248 6.18727C5.50904 6.29671 5.65501 6.40694 5.80134 6.51669C6.31911 6.90505 6.83721 7.29298 7.35454 7.68192C7.48517 7.78013 7.62793 7.82802 7.78965 7.78633C8.00011 7.73209 8.13486 7.59429 8.17576 7.38291C8.21728 7.16841 8.12837 6.99959 7.95523 6.87067C7.38249 6.44422 6.81129 6.01568 6.23725 5.59099C6.17635 5.54594 6.15476 5.49911 6.15517 5.42477C6.15814 4.89327 6.15676 4.36174 6.15657 3.83023Z" fill="white" fill-opacity="0.28"/>
</svg>
