<svg width="15" height="15" viewBox="0 0 15 15" fill="none" xmlns="http://www.w3.org/2000/svg">
<path d="M7.48097 9.19585C7.44594 9.2294 7.41864 9.25433 7.39266 9.2806C5.83734 10.8534 4.2802 12.4244 2.72832 14.0006C2.36391 14.3708 1.92447 14.4757 1.43458 14.4155C0.637618 14.3175 0.266266 13.6519 0.322728 12.9895C0.351519 12.6517 0.503452 12.3661 0.741913 12.1253C2.3119 10.5396 3.88043 8.95248 5.44943 7.36581C5.46045 7.35467 5.47009 7.34163 5.48256 7.33254C5.55574 7.27918 5.54979 7.23598 5.48508 7.17069C3.9209 5.59253 2.35883 4.01223 0.796681 2.43201C0.422457 2.05346 0.30093 1.59624 0.437479 1.08679C0.573648 0.57875 0.913967 0.24735 1.41882 0.119886C1.89641 -0.000696283 2.33284 0.111069 2.68611 0.464893C4.26467 2.04591 5.83872 3.63153 7.4145 5.21539C7.43833 5.23934 7.46343 5.26199 7.49399 5.291C7.52583 5.26146 7.55371 5.23747 7.57952 5.21137C9.11333 3.66044 10.648 2.11034 12.1798 0.557369C12.472 0.261034 12.8141 0.089093 13.2308 0.108415C13.8043 0.135011 14.2156 0.423244 14.4454 0.952272C14.665 1.45762 14.5441 2.04896 14.1668 2.43041C12.6159 3.99874 11.0651 5.56714 9.51419 7.13554C9.45139 7.19905 9.45039 7.26145 9.51117 7.32276C11.0713 8.89127 12.6304 10.4608 14.1926 12.0271C14.4269 12.262 14.5944 12.5252 14.6599 12.8577C14.7801 13.4678 14.42 14.1475 13.8316 14.3411C13.2297 14.5392 12.6758 14.4459 12.2119 13.9766C10.6631 12.4096 9.1138 10.8432 7.56459 9.27671C7.54056 9.25242 7.5155 9.22918 7.48097 9.19585Z" fill="#E4D804"/>
</svg>
