<svg width="15" height="14" viewBox="0 0 15 14" fill="none" xmlns="http://www.w3.org/2000/svg">
<path d="M4.70467 1.1551H9.66341C9.66341 1.19438 9.66341 1.23025 9.66341 1.26612C9.66343 1.72389 9.66227 2.18167 9.66398 2.63943C9.66488 2.88026 9.72305 3.10469 9.87429 3.2979C10.059 3.5338 10.2987 3.66727 10.5995 3.69473C10.833 3.71603 11.0654 3.71292 11.2878 3.6396C11.7041 3.50237 11.8984 3.22573 11.9008 2.78266C11.9035 2.27541 11.903 1.76813 11.9 1.26088C11.8995 1.17959 11.9173 1.14845 12.0069 1.14944C12.4429 1.15424 12.8791 1.14854 13.3152 1.15263C13.6978 1.15622 13.9873 1.32505 14.1596 1.66993C14.2068 1.7645 14.2243 1.87471 14.2496 1.97915C14.2595 2.02033 14.2548 2.06535 14.2548 2.10862C14.255 5.75224 14.2547 9.39587 14.2556 13.0395C14.2556 13.357 14.1406 13.6168 13.8892 13.8131C13.7216 13.9439 13.5276 13.9956 13.3182 13.999C13.2965 13.9993 13.2749 13.9993 13.2532 13.9993C9.17037 13.9994 5.08753 13.999 1.00469 14.0001C0.749108 14.0002 0.514856 13.9475 0.317534 13.774C0.134858 13.6134 0.0341533 13.4111 0.00499718 13.1717C-0.000587965 13.1259 0.000549406 13.0791 0.000547179 13.0327C0.000367145 9.39527 0.00065223 5.75782 2.32754e-08 2.12038C-7.16192e-05 1.72147 0.165243 1.41856 0.526472 1.24553C0.647658 1.18748 0.793306 1.15882 0.928627 1.15587C1.41092 1.14535 1.89358 1.15336 2.37608 1.14989C2.45321 1.14933 2.46909 1.17763 2.46876 1.24702C2.46655 1.71097 2.46859 2.17494 2.46733 2.6389C2.46657 2.91832 2.54186 3.16939 2.73262 3.3795C2.86241 3.52246 3.01739 3.63175 3.20639 3.67195C3.61944 3.75981 4.02058 3.7553 4.36146 3.45514C4.60159 3.2437 4.70386 2.96973 4.70439 2.65446C4.70515 2.19359 4.70464 1.73273 4.70467 1.27186C4.70467 1.23547 4.70467 1.19909 4.70467 1.1551ZM7.12765 4.76527C5.10153 4.76527 3.07541 4.76527 1.04928 4.76528C0.959816 4.76528 0.91505 4.81068 0.914987 4.90147C0.914969 7.58337 0.914969 10.2653 0.914988 12.9472C0.914989 13.0413 0.961514 13.0884 1.05456 13.0885C5.10372 13.0885 9.15287 13.0885 13.202 13.0885C13.2947 13.0885 13.3411 13.0412 13.3412 12.9466C13.3412 10.2646 13.3412 7.58274 13.3412 4.90083C13.3412 4.81052 13.2961 4.76534 13.206 4.76528C11.1799 4.76527 9.15377 4.76527 7.12765 4.76527Z" fill="#E4D804"/>
<path d="M2.92282 1.63474C2.92278 1.2977 2.92202 0.96066 2.92298 0.623624C2.92406 0.242373 3.15402 0.00972613 3.5359 0.0124753C3.65488 0.0133318 3.78172 0.0159442 3.89097 0.0559621C4.13554 0.145551 4.24771 0.343635 4.24888 0.598601C4.25208 1.29121 4.25402 1.98389 4.24821 2.67647C4.24523 3.03116 4.00809 3.25686 3.65379 3.26325C3.60124 3.2642 3.54859 3.26491 3.49611 3.26273C3.15345 3.24851 2.92599 3.01649 2.92344 2.67368C2.92086 2.32738 2.92287 1.98105 2.92282 1.63474Z" fill="#E4D804"/>
<path d="M11.4457 1.62417C11.4459 1.95813 11.4465 2.29209 11.4457 2.62605C11.4448 3.02078 11.2199 3.24849 10.8233 3.24327C10.696 3.24159 10.5591 3.23406 10.4441 3.18668C10.2186 3.09382 10.1207 2.89819 10.1198 2.65941C10.1172 1.96677 10.1138 1.27405 10.1211 0.581466C10.1249 0.222526 10.357 0.000371224 10.7157 3.73166e-06C10.8466 -0.000130459 10.9876 0.00311127 11.1064 0.0497225C11.3347 0.13932 11.4439 0.329674 11.4452 0.575903C11.4469 0.925316 11.4456 1.27475 11.4457 1.62417Z" fill="#E4D804"/>
<path d="M8.42056 7.55542C8.16403 7.55542 7.9075 7.55586 7.65097 7.55523C7.52065 7.5549 7.48277 7.51944 7.48247 7.39152C7.48142 6.94955 7.48145 6.50757 7.48244 6.0656C7.48272 5.94007 7.51851 5.90279 7.64203 5.9025C8.15818 5.9013 8.67434 5.90136 9.19049 5.90239C9.3187 5.90265 9.35459 5.9408 9.35474 6.07061C9.35526 6.50949 9.35529 6.94838 9.35471 7.38726C9.35454 7.51849 9.31623 7.55501 9.18088 7.55528C8.92744 7.55579 8.674 7.55543 8.42056 7.55542Z" fill="#E4D804"/>
<path d="M11.0894 7.55541C10.836 7.5554 10.5826 7.55576 10.3291 7.55526C10.1921 7.55499 10.1561 7.52117 10.1559 7.38756C10.1551 6.94868 10.1551 6.5098 10.1558 6.07093C10.1561 5.93554 10.1896 5.90241 10.3281 5.9022C10.838 5.90142 11.348 5.90138 11.858 5.90227C11.9921 5.9025 12.0277 5.93971 12.0278 6.07457C12.0282 6.51035 12.0282 6.94614 12.0278 7.38192C12.0277 7.5188 11.9901 7.55507 11.8498 7.55529C11.5963 7.5557 11.3429 7.55541 11.0894 7.55541Z" fill="#E4D804"/>
<path d="M3.0706 8.22303C3.32404 8.22303 3.57748 8.22272 3.83092 8.22315C3.97087 8.22339 4.00882 8.25998 4.00897 8.39661C4.00946 8.8324 4.00945 9.2682 4.00898 9.704C4.00884 9.83914 3.97359 9.8759 3.83896 9.87614C3.32899 9.87704 2.81902 9.87699 2.30905 9.87623C2.16891 9.87602 2.13616 9.84181 2.13596 9.69818C2.13535 9.26548 2.13532 8.83277 2.136 8.40007C2.13622 8.25807 2.17101 8.22345 2.31028 8.22317C2.56372 8.22266 2.81716 8.22303 3.0706 8.22303Z" fill="#E4D804"/>
<path d="M5.74089 9.87654C5.48744 9.87657 5.234 9.87736 4.98056 9.87625C4.84302 9.87565 4.8099 9.84276 4.80967 9.70611C4.8089 9.26723 4.80884 8.82834 4.80975 8.38945C4.81002 8.25937 4.84649 8.22343 4.97528 8.2233C5.48835 8.22276 6.00142 8.22278 6.51448 8.22328C6.64122 8.22341 6.68184 8.26327 6.68203 8.38874C6.6827 8.83072 6.68273 9.2727 6.68199 9.71468C6.68178 9.83613 6.64308 9.87531 6.51975 9.87604C6.26014 9.87758 6.00051 9.87651 5.74089 9.87654Z" fill="#E4D804"/>
<path d="M8.41753 8.22307C8.67407 8.22307 8.9306 8.22258 9.18714 8.22327C9.31496 8.22361 9.35448 8.26213 9.35467 8.38824C9.35531 8.83022 9.35533 9.2722 9.35464 9.71418C9.35446 9.83705 9.31723 9.87574 9.19351 9.87601C8.67736 9.87716 8.1612 9.87713 7.64504 9.87608C7.51948 9.87582 7.48283 9.83955 7.48251 9.71592C7.48139 9.27395 7.48148 8.83197 7.48239 8.38999C7.48266 8.26056 7.52027 8.22366 7.64794 8.22329C7.90447 8.22256 8.161 8.22308 8.41753 8.22307Z" fill="#E4D804"/>
<path d="M11.0953 8.22286C11.3519 8.22286 11.6084 8.22227 11.8649 8.22312C11.986 8.22352 12.0275 8.26409 12.0276 8.38368C12.0284 8.82874 12.0284 9.27381 12.0276 9.71887C12.0274 9.83454 11.9879 9.87537 11.8706 9.87566C11.3514 9.87694 10.8322 9.87696 10.3129 9.87569C10.1925 9.8754 10.1564 9.83888 10.1561 9.71999C10.155 9.27493 10.155 8.82987 10.156 8.3848C10.1563 8.26029 10.1936 8.22356 10.3165 8.22314C10.5761 8.22225 10.8357 8.22287 11.0953 8.22286Z" fill="#E4D804"/>
<path d="M3.07124 12.2008C2.82088 12.2008 2.57052 12.2012 2.32017 12.2007C2.17271 12.2004 2.13626 12.1658 2.13604 12.0229C2.13534 11.5871 2.13528 11.1512 2.1361 10.7154C2.13635 10.5826 2.17414 10.5444 2.30808 10.5442C2.81806 10.5432 3.32805 10.5432 3.83804 10.5443C3.96955 10.5446 4.00883 10.5859 4.00897 10.7174C4.00944 11.1532 4.00943 11.589 4.00899 12.0248C4.00885 12.1605 3.96913 12.2001 3.83158 12.2006C3.57813 12.2014 3.32468 12.2008 3.07124 12.2008Z" fill="#E4D804"/>
<path d="M5.73952 12.2008C5.49225 12.2008 5.24498 12.2012 4.99772 12.2007C4.84279 12.2004 4.80968 12.1688 4.80949 12.0183C4.80896 11.5856 4.80891 11.1529 4.80955 10.7202C4.80975 10.581 4.84577 10.5443 4.98547 10.5441C5.49237 10.5432 5.99927 10.5432 6.50616 10.5441C6.64278 10.5444 6.68198 10.5852 6.6821 10.7219C6.68248 11.1577 6.68257 11.5935 6.68202 12.0293C6.68186 12.1588 6.64051 12.2 6.50913 12.2005C6.2526 12.2014 5.99606 12.2007 5.73952 12.2008Z" fill="#E4D804"/>
<path d="M8.41422 12.2008C8.16077 12.2008 7.90732 12.2015 7.65388 12.2005C7.52049 12.2 7.48255 12.1624 7.4823 12.0291C7.48149 11.5902 7.48147 11.1513 7.48234 10.7124C7.48259 10.5847 7.52102 10.5446 7.648 10.5443C8.16108 10.5431 8.67416 10.5432 9.18723 10.5444C9.31408 10.5447 9.35448 10.5865 9.35464 10.7113C9.35522 11.1532 9.35527 11.5952 9.35458 12.0372C9.35439 12.1569 9.31291 12.1996 9.1931 12.2003C8.93348 12.2018 8.67385 12.2007 8.41422 12.2008Z" fill="#E4D804"/>
<path d="M11.0864 12.2008C10.836 12.2008 10.5857 12.2013 10.3353 12.2006C10.1895 12.2002 10.1558 12.1663 10.1557 12.0191C10.1552 11.5864 10.1551 11.1537 10.1557 10.721C10.1559 10.5815 10.1918 10.5443 10.3307 10.5441C10.8376 10.5432 11.3445 10.5433 11.8514 10.5441C11.9888 10.5444 12.0276 10.5846 12.0278 10.7211C12.0281 11.1569 12.0282 11.5927 12.0277 12.0285C12.0276 12.1593 11.9875 12.1999 11.856 12.2004C11.5995 12.2015 11.3429 12.2007 11.0864 12.2008Z" fill="#E4D804"/>
</svg>
