<svg width="24" height="17" viewBox="0 0 24 17" fill="none" xmlns="http://www.w3.org/2000/svg">
<path d="M1.20939 0.154989C1.4304 0.105568 1.65081 0.0531272 1.87279 0.00855134C1.94025 -0.00499486 2.01207 0.00161058 2.08189 0.00160789C8.35862 0.00136328 14.6354 -0.000149833 20.9121 0.00689002C21.166 0.00717474 21.4201 0.0868727 21.6734 0.133498C21.7144 0.141048 21.7516 0.169226 21.8076 0.195986C21.7594 0.248666 21.7248 0.289521 21.6871 0.327331C18.4968 3.52862 15.3025 6.72595 12.1211 9.93612C11.7782 10.2822 11.1992 10.2579 10.8865 9.94227C7.70546 6.73168 4.51117 3.53422 1.31912 0.334528C1.28114 0.29645 1.22399 0.277497 1.17578 0.249618L1.20939 0.154989Z" fill="#E4D804"/>
<path d="M21.7947 16.0221C21.5689 16.071 21.3439 16.1245 21.1168 16.1664C21.0297 16.1825 20.9377 16.1735 20.8479 16.1735C14.6157 16.1738 8.38347 16.1747 2.15127 16.1699C1.91505 16.1697 1.67808 16.1176 1.44313 16.0794C1.36335 16.0664 1.28874 16.0217 1.19141 15.9834C1.24449 15.9257 1.27934 15.885 1.31704 15.8472C3.52851 13.6279 5.74021 11.4088 7.95195 9.18974C8.05053 9.09084 8.14949 9.0911 8.24882 9.19052C8.87037 9.81086 9.47607 10.4482 10.1179 11.0468C10.8642 11.7429 12.0935 11.7501 12.8593 11.0724C13.2808 10.6994 13.6641 10.2832 14.0637 9.8856C14.3042 9.64625 14.5475 9.40937 14.7804 9.16276C14.8741 9.06352 14.9295 9.06111 15.0284 9.16094C16.1412 10.2844 17.259 11.4029 18.3753 12.5229C19.4779 13.6289 20.5804 14.735 21.6827 15.8412C21.7208 15.8794 21.7573 15.9192 21.7945 15.9582C21.7946 15.9795 21.7946 16.0008 21.7947 16.0221Z" fill="#E4D804"/>
<path d="M0.176903 15.0097C0.119967 14.781 0.0600975 14.553 0.0080378 14.3233C-0.005997 14.2613 0.00261495 14.194 0.00261226 14.1292C0.0024422 10.1023 0.00330714 6.07542 0.000793461 2.04856C0.000599157 1.73768 0.0745314 1.4506 0.21373 1.14752C0.267346 1.19361 0.308673 1.22462 0.344777 1.26083C2.57416 3.49687 4.80259 5.73387 7.03398 7.96791C7.12526 8.0593 7.13195 8.10967 7.03651 8.20519C4.80477 10.4388 2.57644 12.6759 0.347208 14.912C0.312935 14.9464 0.275315 14.9775 0.239258 15.0101C0.218472 15.0099 0.197688 15.0098 0.176903 15.0097Z" fill="#E4D804"/>
<path d="M22.7839 15.0304C22.7252 14.9758 22.6819 14.938 22.6415 14.8975C20.4197 12.6686 18.1987 10.4388 15.9744 8.2124C15.8776 8.11553 15.8744 8.06275 15.9729 7.96415C18.1972 5.73784 20.4181 3.50812 22.6399 1.27925C22.6807 1.23837 22.724 1.20006 22.781 1.14661C22.9073 1.38473 22.9695 1.61691 22.9955 1.85988C23.0023 1.92411 22.9995 1.98948 22.9995 2.05432C22.9997 6.07557 22.9989 10.0968 23.0011 14.1181C23.0013 14.4329 22.931 14.7252 22.7839 15.0304Z" fill="#E4D804"/>
</svg>
