<svg width="23" height="24" viewBox="0 0 23 24" fill="none" xmlns="http://www.w3.org/2000/svg">
<path d="M11.4956 2.49932e-08C15.3139 0.000320486 18.4025 3.09009 18.4008 6.90767C18.399 10.7189 15.2888 13.824 11.4859 13.8112C7.66756 13.7984 4.58297 10.7018 4.58986 6.88852C4.59673 3.0811 7.68584 -0.000320436 11.4956 2.49932e-08Z" fill="#E4D804"/>
<path d="M11.4763 23.0145C8.08982 23.0145 4.70335 23.0135 1.31689 23.0161C1.00923 23.0164 0.720866 22.9711 0.469293 22.7798C0.0540788 22.4641 -0.10143 21.9584 0.0666329 21.4282C0.771214 19.2055 2.22884 17.7173 4.43323 16.9583C5.60209 16.5559 6.81075 16.3595 8.03704 16.2486C9.92107 16.0782 11.8085 16.0776 13.6955 16.1591C15.1698 16.2228 16.6352 16.3782 18.0592 16.7964C19.7319 17.2877 21.1482 18.1461 22.1037 19.6531C22.4745 20.238 22.7621 20.863 22.9466 21.5307C23.1456 22.2513 22.6319 22.96 21.8872 23.0085C21.7797 23.0155 21.6716 23.0143 21.5637 23.0143C18.2012 23.0146 14.8388 23.0145 11.4763 23.0145Z" fill="#E4D804"/>
</svg>
