<svg width="13" height="14" viewBox="0 0 13 14" fill="none" xmlns="http://www.w3.org/2000/svg">
<path d="M11.0971 11.7308C11.3014 11.9188 11.4208 12.1252 11.4663 12.3766C11.5736 12.9696 11.0947 13.5799 10.4908 13.59C9.91584 13.5997 9.34045 13.5874 8.76527 13.5818C7.74084 13.5719 6.71643 13.5598 5.69202 13.5482C5.29043 13.5437 4.88883 13.5394 4.48728 13.5327C4.05858 13.5255 3.73166 13.2014 3.73113 12.771C3.72871 10.7763 3.73014 8.78168 3.72961 6.78703C3.72957 6.62744 3.77802 6.47911 3.87369 6.35906C4.06604 6.11771 4.2552 5.86871 4.47939 5.6589C5.00092 5.17083 5.54709 4.70919 6.07363 4.22632C6.28854 4.02923 6.48277 3.80879 6.67854 3.59187C6.87212 3.37737 6.94032 3.11534 6.9503 2.83038C6.96459 2.42233 6.98387 2.01422 7.01366 1.60705C7.02469 1.45618 7.06074 1.30468 7.10475 1.15933C7.15434 0.995529 7.21295 0.963192 7.3834 0.968115C7.8559 0.981761 8.27627 1.11402 8.5727 1.51105C8.7567 1.75749 8.83771 2.04423 8.88045 2.3442C8.9592 2.89698 8.87746 3.43689 8.7451 3.97147C8.5836 4.62373 8.34547 5.24883 8.0604 5.85657C8.04749 5.88409 8.03721 5.9129 8.02695 5.94155C8.02501 5.94696 8.02896 5.95447 8.03365 5.97932C8.0725 5.97932 8.11487 5.97932 8.15724 5.97932C9.30093 5.97933 10.4446 5.98062 11.5883 5.97846C11.8735 5.97792 12.1314 6.04353 12.3549 6.231C12.9208 6.7057 12.8412 7.76013 12.0188 8.02756C11.9966 8.03477 11.9756 8.04549 11.9409 8.06013C12.246 8.34882 12.3802 8.69207 12.289 9.10228C12.1974 9.51446 11.9302 9.76855 11.5238 9.89579C11.837 10.1904 11.973 10.5359 11.8752 10.9467C11.7788 11.3513 11.5064 11.6007 11.0971 11.7308Z" fill="#E4D804"/>
<path d="M2.96634 9.78209C2.96634 10.7521 2.96644 11.7221 2.9663 12.6921C2.96623 13.2039 2.64395 13.5265 2.13099 13.5271C1.4707 13.5277 1.64929 13.5279 0.989001 13.527C0.478795 13.5263 0.160867 13.2082 0.160747 12.6978C0.160285 10.7407 0.160284 8.78369 0.160748 6.82664C0.160869 6.31675 0.478659 5.99862 0.989392 5.99766C1.64968 5.99642 1.47109 5.99633 2.13138 5.99773C2.63447 5.9988 2.95642 6.31822 2.95743 6.82099C2.95942 7.80802 2.95802 8.79506 2.95802 9.78209H2.96634Z" fill="#E4D804"/>
</svg>
