<svg width="23" height="22" viewBox="0 0 23 22" fill="none" xmlns="http://www.w3.org/2000/svg">
<path d="M18.591 8.96721C18.5835 10.6243 18.1631 12.172 17.2919 13.6009C17.1537 13.8276 17.1495 13.7785 17.3352 13.9588C19.0142 15.5886 20.6934 17.2183 22.3738 18.8468C22.8013 19.2611 23.0376 19.7488 22.9951 20.3439C22.9256 21.3184 22.0094 22.071 21.0121 21.9947C20.5063 21.956 20.0996 21.7432 19.7501 21.4043C18.0809 19.7857 16.411 18.1677 14.7459 16.5451C14.635 16.4369 14.5598 16.4318 14.4339 16.5153C13.7383 16.9769 12.9849 17.3293 12.1841 17.5807C10.9885 17.956 9.76299 18.0933 8.50877 17.9932C7.2383 17.8918 6.04155 17.5471 4.92165 16.9624C3.9474 16.4538 3.08703 15.7996 2.35412 14.9914C1.29581 13.8244 0.574676 12.4891 0.229064 10.9693C-0.19523 9.10359 -0.0317788 7.28136 0.733534 5.52363C1.41615 3.95584 2.47744 2.66768 3.9115 1.67871C5.0368 0.902669 6.27437 0.379352 7.63823 0.147166C9.41686 -0.155631 11.1487 0.00341683 12.8185 0.67458C14.4403 1.32644 15.775 2.34184 16.8106 3.72215C17.6058 4.78209 18.1518 5.95154 18.4053 7.23823C18.5173 7.80647 18.5577 8.38799 18.6305 8.96349L18.591 8.96721ZM15.5784 9.01681C15.5561 5.6378 12.7803 2.94041 9.305 2.92515C5.85675 2.91001 3.03614 5.63939 3.01892 9.00418C3.00178 12.3525 5.83491 15.1055 9.29956 15.1019C12.7402 15.0983 15.5516 12.4247 15.5784 9.01681Z" fill="white"/>
</svg>
