<svg width="20" height="20" viewBox="0 0 20 20" fill="none" xmlns="http://www.w3.org/2000/svg">
<path d="M12.4208 2.5979C14.0847 4.26073 15.7427 5.91761 17.4072 7.58103C17.3809 7.60888 17.3466 7.64721 17.3102 7.68353C13.9946 10.9983 10.6788 14.313 7.36296 17.6277C7.20474 17.7858 7.23452 17.7711 7.08684 17.6235C5.5064 16.0446 3.92709 14.4645 2.34376 12.8885C2.24935 12.7946 2.25051 12.7473 2.34417 12.6539C5.67342 9.33338 8.99972 6.00994 12.3266 2.68704C12.3599 2.6537 12.3951 2.62215 12.4208 2.5979Z" fill="#E4D804"/>
<path d="M18.2383 6.74374C16.5752 5.08212 14.9195 3.42798 13.2578 1.76776C13.2726 1.74992 13.2923 1.722 13.3161 1.69826C13.7278 1.28805 14.1313 0.869007 14.5543 0.470687C15.2241 -0.160155 16.2926 -0.158007 16.9485 0.483444C17.8103 1.32634 18.6589 2.18291 19.5074 3.03929C19.8538 3.38884 20.0125 3.82375 19.9989 4.3123C19.9874 4.7272 19.8521 5.10919 19.5653 5.41276C19.1426 5.86017 18.7006 6.28931 18.2664 6.72591C18.2577 6.73476 18.2449 6.73966 18.2383 6.74374Z" fill="#E4D804"/>
<path d="M6.21947 18.4182C6.04418 18.4697 5.8511 18.5279 5.65716 18.5831C4.94092 18.787 4.22425 18.9894 3.50803 19.1933C2.58786 19.4553 1.66886 19.7214 0.747261 19.9783C0.531022 20.0386 0.332429 19.9706 0.176319 19.8098C0.017016 19.6457 -0.0379727 19.4481 0.0262441 19.2237C0.343793 18.1142 0.661857 17.0048 0.979088 15.8952C1.17746 15.2014 1.37459 14.5071 1.57304 13.8133C1.57737 13.7981 1.5909 13.7856 1.58849 13.7892C3.1315 15.3315 4.67395 16.8733 6.21947 18.4182Z" fill="#E4D804"/>
</svg>
