<svg width="14" height="16" viewBox="0 0 14 16" fill="none" xmlns="http://www.w3.org/2000/svg">
<path d="M8.89334 13.3608C8.91734 13.155 8.93045 12.9712 8.96346 12.7914C8.97868 12.7084 8.94875 12.6817 8.892 12.648C8.18981 12.2299 7.48861 11.81 6.78705 11.3907C5.99634 10.9182 5.20504 10.4467 4.41558 9.97186C4.34424 9.92895 4.2996 9.93026 4.23481 9.99003C2.8899 11.2306 0.814349 10.6956 0.166133 8.94355C-0.368144 7.49945 0.436501 5.82637 1.85991 5.43478C2.75169 5.18946 3.55058 5.38751 4.24803 6.02149C4.29841 6.06728 4.33503 6.07582 4.39538 6.03967C5.89824 5.13934 7.40213 4.24089 8.9066 3.34353C8.96087 3.31117 8.97732 3.28067 8.9626 3.21223C8.67178 1.85962 9.49438 0.451186 10.7815 0.0931723C12.1627 -0.290993 13.5388 0.545613 13.9162 1.99891C14.2592 3.31949 13.5173 4.77035 12.2709 5.18757C11.2806 5.51909 10.4036 5.2927 9.65013 4.54465C9.5956 4.49051 9.55976 4.48731 9.49748 4.52462C8.02053 5.40939 6.54268 6.29252 5.06391 7.17394C5.00208 7.21079 4.9844 7.24103 5.00459 7.31927C5.12203 7.77444 5.12191 8.23268 5.00257 8.68722C4.98015 8.77264 5.01412 8.79645 5.06957 8.8295C5.82625 9.28053 6.58231 9.73269 7.33853 10.1846C8.05448 10.6124 8.77085 11.0394 9.48568 11.4693C9.55237 11.5094 9.59379 11.5136 9.65502 11.4507C11.0705 9.99632 13.4099 10.6594 13.9129 12.6691C14.2777 14.1268 13.4305 15.5364 12.1184 15.9062C10.7411 16.2943 9.34649 15.4431 8.98833 13.998C8.93551 13.7849 8.92222 13.561 8.89334 13.3608Z" fill="#E4D804"/>
</svg>
