<svg width="14" height="14" viewBox="0 0 14 14" fill="none" xmlns="http://www.w3.org/2000/svg">
<path d="M3.279e-07 6.99857C0.00117363 3.14237 3.14319 0.000775542 6.99951 1.43301e-07C10.8588 -0.00077562 14.0058 3.14825 14.0009 7.00595C13.9961 10.8634 10.852 14.003 6.99683 14C3.13974 13.997 -0.0011717 10.8541 3.279e-07 6.99857ZM12.4693 7.00167C12.4703 3.9949 10.0091 1.53244 7.00202 1.53152C3.99507 1.53059 1.53255 3.99155 1.53162 6.99844C1.53069 10.0054 3.99161 12.4676 6.99893 12.4685C10.0061 12.4694 12.4683 10.0087 12.4693 7.00167Z" fill="#E4D804"/>
<path d="M6.42111 5.66796C6.42113 5.14846 6.41978 4.62896 6.42166 4.10946C6.42272 3.8191 6.56773 3.60647 6.8184 3.51703C7.18644 3.3857 7.59133 3.64912 7.60039 4.0396C7.61117 4.50416 7.6045 4.96915 7.60484 5.43395C7.6052 5.92611 7.60625 6.41827 7.60342 6.91041C7.60302 6.98037 7.62509 7.02918 7.67376 7.07765C8.31955 7.72071 8.96411 8.365 9.60801 9.00995C9.82879 9.23109 9.87401 9.49588 9.73836 9.74802C9.56987 10.0612 9.15071 10.1518 8.86757 9.93501C8.82436 9.90192 8.78449 9.86394 8.7459 9.82539C8.05193 9.1321 7.36086 8.43588 6.66299 7.74654C6.4932 7.57883 6.41641 7.38973 6.41927 7.15353C6.42526 6.6584 6.42108 6.16316 6.42111 5.66796Z" fill="#E4D804"/>
</svg>
